<svg width="48" height="35" viewBox="0 0 48 35" fill="none" xmlns="http://www.w3.org/2000/svg">
<path d="M24.153 0.99707H24.42C26.886 1.00607 39.381 1.09607 42.75 2.00207C43.7685 2.27858 44.6966 2.81754 45.4415 3.56509C46.1864 4.31265 46.7221 5.24262 46.995 6.26207C47.298 7.40207 47.511 8.91107 47.655 10.4681L47.685 10.7801L47.751 11.5601L47.775 11.8721C47.97 14.6141 47.994 17.1821 47.997 17.7431V17.9681C47.994 18.5501 47.967 21.2921 47.751 24.1481L47.727 24.4631L47.7 24.7751C47.55 26.4911 47.328 28.1951 46.995 29.4491C46.7229 30.4689 46.1875 31.3993 45.4425 32.147C44.6974 32.8947 43.7689 33.4334 42.75 33.7091C39.27 34.6451 26.043 34.7111 24.21 34.7141H23.784C22.857 34.7141 19.023 34.6961 15.003 34.5581L14.493 34.5401L14.232 34.5281L13.719 34.5071L13.206 34.4861C9.876 34.3391 6.705 34.1021 5.244 33.7061C4.22547 33.4307 3.2972 32.8924 2.55217 32.1453C1.80715 31.3982 1.27154 30.4684 0.999 29.4491C0.666 28.1981 0.444 26.4911 0.294 24.7751L0.27 24.4601L0.246 24.1481C0.0979428 22.1153 0.0158996 20.0782 0 18.0401L0 17.6711C0.006 17.0261 0.03 14.7971 0.192 12.3371L0.213 12.0281L0.222 11.8721L0.246 11.5601L0.312 10.7801L0.342 10.4681C0.486 8.91107 0.699 7.39907 1.002 6.26207C1.27408 5.24221 1.80949 4.3118 2.55454 3.56412C3.29959 2.81643 4.22811 2.27775 5.247 2.00207C6.708 1.61207 9.879 1.37207 13.209 1.22207L13.719 1.20107L14.235 1.18307L14.493 1.17407L15.006 1.15307C17.8611 1.06119 20.7174 1.01019 23.574 1.00007H24.153V0.99707ZM19.2 10.6271V25.0811L31.671 17.8571L19.2 10.6271Z" fill="#666666"/>
</svg>
